# Blender v2.78 (sub 0) OBJ File: ''
# www.blender.org
o Cube.001
v -0.630920 -0.226328 0.592326
v -0.537873 -0.057997 1.154378
v -1.052088 -0.064600 0.954513
v -1.155731 -0.217847 0.459469
v -0.677921 1.329703 0.698183
v -1.176430 1.281231 0.646380
v -1.019775 1.174950 1.105961
v -0.610285 1.147948 1.327881
v 1.115930 1.067893 0.980967
v 0.808457 1.346412 0.902078
v 0.444005 1.032712 1.513821
v 0.936321 0.677546 1.426494
v -0.944509 0.743625 1.392342
v -1.281588 0.883991 1.218077
v -1.719440 0.916506 -0.699776
v -1.356023 1.245036 -0.716849
v -0.681862 1.180458 -1.481573
v -0.974527 0.926074 -1.431442
v -0.751048 0.149059 -1.123006
v -0.321458 -0.060305 -0.702046
v -0.692441 -0.114299 -0.835835
v -1.063276 0.074521 -1.015607
v -0.359688 -0.219676 -0.596748
v -0.476225 -0.274043 -0.037390
v -1.094633 -0.254018 -0.118459
v -0.862364 -0.219203 -0.537108
v 0.548058 -0.284113 -0.657622
v 0.480423 -0.312115 -0.111060
v -0.015789 -0.312706 -0.060242
v 0.172793 -0.188473 -0.532460
v 0.383454 -0.298149 0.533170
v 0.243586 -0.141476 1.191072
v -0.154563 -0.114500 1.228987
v -0.106274 -0.274351 0.595963
v 0.342781 1.370886 0.863692
v -0.198010 1.360380 0.630818
v -0.344848 1.152380 1.730000
v -0.065279 1.102928 1.796044
v 0.801564 1.333314 -0.716665
v 0.062998 1.276304 -0.994314
v 0.046107 1.351565 -0.253730
v 0.611501 1.352344 -0.290780
v -0.544178 1.290048 -0.889409
v -1.177093 1.303243 0.009798
v -0.603343 1.343584 -0.011276
v 1.347667 0.189763 0.746821
v 1.267461 0.630730 1.008356
v 1.155268 0.478039 1.381585
v 1.014587 0.183491 1.312948
v 1.323792 0.127379 -0.856060
v 1.267107 0.600208 -0.689727
v 1.175182 0.692469 0.169032
v 1.268899 0.241091 -0.063884
v 1.423543 0.897206 -0.707035
v 1.231954 1.216866 -0.594471
v 0.975431 1.246559 0.047895
v 1.050912 1.068503 0.197512
v -0.706694 0.190636 1.346937
v -1.043570 0.402928 1.289593
v -1.648060 0.452009 0.853586
v -1.571341 0.110279 0.770709
v 0.494274 0.153436 1.399456
v 0.667029 0.439932 1.448684
v 0.260077 0.452640 1.365451
v -0.135120 0.156677 1.505020
v 0.524189 0.691410 1.410453
v -0.066870 0.652060 1.602193
v -1.346437 -0.078697 -0.808084
v -1.759897 0.319614 -0.724614
v -1.185727 0.481559 -1.133555
v -1.550380 0.033513 0.487642
v -1.646483 0.462612 0.459024
v -1.648881 0.429819 -0.064031
v -1.548443 -0.153801 -0.255587
v -1.434319 1.017100 0.746778
v -1.483055 1.068517 0.045330
v -0.263198 0.916780 -1.716774
v -0.775458 0.497559 -1.402503
v 0.802037 0.850318 -1.528586
v 0.556317 0.449266 -1.496503
v -0.199824 0.336820 -1.536424
v 0.153226 0.839249 -1.832230
v 0.512712 0.114694 -1.198383
v 0.468949 -0.142859 -1.026806
v 0.067265 -0.072713 -0.783522
v -0.180515 0.060946 -1.233899
v 0.896930 -0.116701 -1.078061
v 1.042022 -0.190494 -0.637866
v 1.045407 -0.157597 -0.147996
v 1.008866 -0.126459 0.470257
v 0.736314 -0.076033 1.066762
v 1.303753 1.083753 -1.023542
v 0.770454 1.122192 -1.299703
v 0.105258 1.126820 -1.585067
v -0.174992 1.147173 -1.801163
v 1.081272 0.175115 -1.287556
v 1.200361 0.538245 -1.221685
v 1.385825 0.807576 -1.181814
vt 0.6576 0.1150
vt 0.7169 0.0570
vt 0.7329 0.1320
vt 0.1210 0.1566
vt 0.0807 0.0873
vt 0.1426 0.0612
vt 0.3804 0.1485
vt 0.2953 0.0534
vt 0.3645 0.0767
vt 0.1131 0.8739
vt 0.1752 0.9020
vt 0.1305 0.9329
vt 0.3998 0.8659
vt 0.4230 0.7581
vt 0.4466 0.9116
vt 0.6887 0.3817
vt 0.6759 0.3361
vt 0.7315 0.3625
vt 0.6389 0.2132
vt 0.6971 0.2882
vt 0.6262 0.3008
vt 0.5032 0.2309
vt 0.5506 0.2947
vt 0.4971 0.3161
vt 0.5309 0.0289
vt 0.5826 0.1178
vt 0.5133 0.1307
vt 0.2679 0.1512
vt 0.1873 0.0046
vt 0.2282 0.0000
vt 0.1952 0.4313
vt 0.2851 0.3339
vt 0.3043 0.4031
vt 0.0000 0.3607
vt 0.1186 0.2671
vt 0.1113 0.4032
vt 0.6848 0.8044
vt 0.6167 0.8504
vt 0.6255 0.7574
vt 0.6986 0.5438
vt 0.6410 0.6352
vt 0.6337 0.5114
vt 0.7849 0.5666
vt 0.7544 0.6896
vt 0.7418 0.5418
vt 0.0643 0.8902
vt 0.0205 0.9895
vt 0.0374 0.8359
vt 0.0444 0.6559
vt 0.0846 0.6947
vt 0.0376 0.7439
vt 0.1708 0.7286
vt 0.1080 0.7338
vt 0.1210 0.6557
vt 0.5817 0.8369
vt 0.4939 0.8009
vt 0.5539 0.7859
vt 0.8145 0.5597
vt 0.8640 0.6494
vt 0.7849 0.6726
vt 1.0000 0.5403
vt 0.9584 0.6355
vt 0.9560 0.5263
vt 0.4833 0.7260
vt 0.4150 0.6404
vt 0.4854 0.5361
vt 0.4219 0.5739
vt 0.4282 0.5066
vt 0.5119 0.3734
vt 0.6074 0.4022
vt 0.5095 0.4017
vt 0.7273 0.2217
vt 0.5733 0.2197
vt 0.6429 0.0297
vt 0.1874 0.1763
vt 0.2059 0.3171
vt 0.0382 0.2526
vt 0.6851 0.8754
vt 0.6585 0.8619
vt 0.7020 0.6783
vt 0.7463 0.8085
vt 0.7849 0.8056
vt 0.0677 1.0000
vt 0.1743 0.8311
vt 0.5292 0.9058
vt 0.9266 0.7524
vt 0.8422 0.7518
vt 0.9831 0.7526
vt 0.5400 0.7368
vt 0.5010 0.6351
vt 0.6230 0.3183
vt 0.5682 0.3335
vt 0.4518 0.3844
vt 0.4248 0.2414
vt 0.4279 0.3169
vt 0.4267 0.1457
vt 0.4624 0.0518
vt 0.3345 0.1545
vt 0.3430 0.2891
vt 0.3677 0.3928
vt 0.3706 0.4602
vt 0.2902 0.4922
vt 0.1911 0.5230
vt 0.0816 0.4915
vt 0.1475 0.5506
vt 0.3804 0.1070
vt 0.5817 0.7175
vt 0.5841 0.6217
vt 0.5846 0.5463
vt 0.3925 0.3544
vt 0.6952 0.4627
vt 0.6437 0.4504
vt 0.7340 0.4686
vt 0.7710 0.4979
vt 0.0000 0.9028
vt 0.0051 0.8177
vt 0.0006 0.7571
vt 0.0012 0.6999
vt 0.4972 0.0000
vt 0.0547 0.5833
vt 0.0865 0.6306
vt 0.1232 0.5940
vt 0.0975 0.5620
vt 0.1679 0.6658
vt 0.7689 0.3276
vt 0.7988 0.7554
vt 0.7914 0.1264
vt 0.7935 0.0829
vt 0.8259 0.5170
vt 0.8711 0.5690
vt 0.8715 0.5082
vt 0.9921 0.4664
vt 0.9443 0.4504
vt 0.3857 0.7186
vt 0.3804 0.6261
vt 0.3890 0.6026
vt 0.2915 0.5281
vt 0.3804 0.4863
vt 0.4800 0.4687
vt 0.4434 0.4504
vt 0.6149 0.4504
vt 0.5085 0.4500
vt 0.5289 0.4745
vt 0.5759 0.5099
vt 0.5408 0.5578
vt 0.0499 0.1548
vt 0.5875 0.0204
vt 0.7808 0.6703
vt 0.1752 0.7734
vt 1.0000 0.6386
vt 0.5482 0.6494
vt 0.4242 0.0171
vt 0.4299 0.4198
vt 0.7935 0.2403
vt 0.1945 0.5620
vt 0.5817 0.5717
vn -0.0796 -0.9779 0.1933
vn -0.3110 -0.7884 0.5306
vn -0.3029 -0.9404 0.1544
vn -0.0711 0.9848 0.1584
vn -0.3408 0.7859 0.5159
vn -0.3430 0.7129 0.6117
vn 0.7746 0.5582 0.2971
vn 0.4023 0.4399 0.8029
vn 0.3900 0.2557 0.8845
vn -0.3367 0.1069 0.9355
vn -0.6012 0.3344 0.7257
vn -0.4539 0.8610 -0.2292
vn -0.5716 0.1441 -0.8077
vn -0.8850 0.3677 -0.2854
vn -0.1928 -0.6945 -0.6932
vn 0.0540 -0.8200 -0.5698
vn -0.2159 -0.5940 -0.7750
vn -0.0570 -0.9981 -0.0203
vn -0.0850 -0.9630 -0.2556
vn 0.0461 -0.8960 -0.4416
vn 0.0987 -0.9944 -0.0367
vn -0.1111 -0.9578 -0.2650
vn -0.0455 -0.9842 -0.1712
vn 0.1037 -0.8561 0.5063
vn -0.0700 -0.9853 0.1560
vn 0.1192 -0.9830 0.1395
vn 0.0425 0.9844 0.1706
vn -0.5304 0.3813 0.7571
vn 0.1152 0.3408 0.9330
vn 0.0154 0.9806 -0.1951
vn 0.1034 0.9946 -0.0072
vn 0.1487 0.9773 -0.1511
vn -0.0517 0.9983 -0.0276
vn -0.0381 0.9913 -0.1258
vn 0.9480 0.1831 0.2604
vn 0.4953 -0.5645 0.6603
vn 0.9208 -0.3592 0.1522
vn 0.9820 -0.1864 0.0315
vn 0.9813 -0.1899 0.0309
vn 0.9181 -0.3523 -0.1816
vn 0.6265 0.7776 0.0523
vn 0.8902 0.4374 0.1271
vn 0.9953 0.0411 0.0874
vn -0.4154 -0.3022 0.8580
vn -0.7569 -0.5304 0.3818
vn -0.2406 -0.2975 0.9239
vn 0.1145 -0.4030 0.9080
vn 0.0598 -0.1403 0.9883
vn -0.1155 -0.0996 0.9883
vn -0.0262 -0.5068 0.8617
vn 0.0609 -0.1822 0.9814
vn -0.3634 -0.7434 -0.5615
vn -0.5324 -0.2732 -0.8011
vn -0.7982 -0.5954 0.0912
vn -0.9937 -0.0037 0.1122
vn -0.6544 -0.7561 -0.0059
vn -0.4112 0.8941 0.1772
vn -0.8157 0.5698 0.0997
vn -0.7978 0.5545 0.2365
vn -0.4000 -0.4217 -0.8137
vn -0.3760 -0.1942 -0.9060
vn 0.2356 -0.4800 -0.8450
vn 0.1737 0.0099 -0.9847
vn 0.4465 0.1931 -0.8737
vn -0.1024 -0.8307 -0.5471
vn -0.1113 -0.8515 -0.5123
vn 0.0222 -0.6169 -0.7867
vn -0.1681 -0.9857 -0.0124
vn -0.0293 -0.9964 -0.0791
vn -0.1957 -0.8383 0.5088
vn -0.0556 0.9950 0.0828
vn -0.0124 0.9984 -0.0552
vn -0.3327 0.9429 0.0140
vn 0.7374 -0.0424 0.6740
vn 0.9736 0.2216 0.0545
vn 0.3573 0.9043 0.2334
vn -0.9140 -0.0170 0.4052
vn -0.8943 -0.2134 -0.3932
vn -0.1291 -0.5752 -0.8077
vn 0.0138 -0.7619 -0.6475
vn -0.1571 -0.9331 -0.3235
vn 0.2340 -0.7933 -0.5620
vn 0.6102 -0.7907 0.0491
vn 0.5111 -0.8572 -0.0625
vn 0.5176 -0.8492 0.1045
vn 0.3116 -0.8578 0.4087
vn 0.5473 0.8266 0.1313
vn 0.6354 0.6781 -0.3692
vn 0.2690 0.8056 -0.5279
vn 0.2565 0.8650 -0.4312
vn -0.3230 0.7285 -0.6040
vn -0.0907 0.5808 -0.8090
vn 0.7469 -0.2194 -0.6276
vn 0.4762 -0.4125 -0.7765
vn 0.8595 -0.0056 -0.5111
vn -0.1175 -0.8578 0.5004
vn -0.0014 -0.0779 0.9969
vn -0.9983 0.0552 0.0163
s 1
f 1/1/1 3/2/2 4/3/3
f 5/4/4 7/5/5 8/6/6
f 9/7/7 11/8/8 12/9/9
f 13/10/10 7/11/5 14/12/11
f 16/13/12 18/14/13 15/15/14
f 19/16/15 21/17/16 22/18/17
f 24/19/18 26/20/19 23/21/20
f 28/22/21 30/23/22 27/24/23
f 32/25/24 34/26/25 31/27/26
f 35/28/27 37/29/28 38/30/29
f 40/31/30 42/32/31 39/33/32
f 16/34/12 45/35/33 43/36/34
f 47/37/35 49/38/36 46/39/37
f 51/40/38 53/41/39 50/42/40
f 55/43/41 57/44/42 54/45/43
f 59/46/44 61/47/45 58/48/46
f 62/49/47 64/50/48 65/51/49
f 38/52/29 67/53/50 66/54/51
f 68/55/52 70/56/53 22/57/17
f 71/58/54 73/59/55 74/60/56
f 6/61/57 76/62/58 75/63/59
f 78/64/60 18/14/13 77/65/61
f 80/66/62 82/67/63 79/68/64
f 84/69/65 86/70/66 83/71/67
f 24/19/18 4/3/3 25/72/68
f 34/26/25 24/19/18 29/73/69
f 34/26/25 2/74/70 1/1/1
f 36/75/71 8/6/6 37/29/28
f 45/35/33 36/75/71 41/76/72
f 44/77/73 5/4/4 45/35/33
f 47/37/35 12/78/9 48/79/74
f 52/80/75 9/81/7 47/37/35
f 57/44/42 10/82/76 9/81/7
f 59/46/44 14/12/11 60/83/77
f 67/53/50 59/46/44 64/50/48
f 67/53/50 8/84/6 13/10/10
f 15/15/14 70/56/53 69/85/78
f 73/59/55 15/86/14 69/87/78
f 76/62/58 16/88/12 15/86/14
f 19/89/15 70/56/53 78/64/60
f 81/90/79 19/89/15 78/64/60
f 86/70/66 20/91/80 19/16/15
f 23/21/20 21/17/16 20/91/80
f 85/92/81 23/21/20 20/91/80
f 29/73/69 23/21/20 30/23/22
f 27/24/23 85/92/81 84/69/65
f 87/93/82 27/24/23 84/69/65
f 89/94/83 27/24/23 88/95/84
f 31/27/26 29/73/69 28/22/21
f 90/96/85 28/22/21 89/94/83
f 91/97/86 31/27/26 90/96/85
f 35/28/27 11/8/8 10/98/76
f 56/99/87 35/28/27 10/98/76
f 41/76/72 35/28/27 42/32/31
f 55/100/41 42/32/31 56/99/87
f 92/101/88 39/33/32 55/100/41
f 93/102/89 40/31/30 39/33/32
f 43/36/34 41/76/72 40/31/30
f 94/103/90 43/36/34 40/31/30
f 17/104/91 43/36/34 95/105/92
f 46/106/37 91/97/86 90/96/85
f 53/41/39 90/107/85 89/108/83
f 52/80/75 46/39/37 53/41/39
f 88/109/84 53/41/39 89/108/83
f 87/93/82 50/110/40 88/95/84
f 97/111/93 50/42/40 96/112/94
f 54/45/43 52/80/75 51/40/38
f 98/113/95 51/40/38 97/111/93
f 92/114/88 54/45/43 98/113/95
f 58/48/46 3/115/2 2/116/70
f 65/51/49 2/116/70 33/117/96
f 64/50/48 58/48/46 65/51/49
f 32/118/24 65/51/49 33/117/96
f 91/97/86 62/119/47 32/25/24
f 49/120/36 63/121/97 62/49/47
f 66/54/51 64/50/48 63/121/97
f 12/122/9 63/121/97 48/123/74
f 11/124/8 66/54/51 12/122/9
f 26/20/19 22/18/17 21/17/16
f 25/72/68 68/125/52 26/20/19
f 74/60/56 69/87/78 68/126/52
f 71/127/54 25/72/68 4/3/3
f 61/128/45 4/3/3 3/2/2
f 61/129/45 72/130/98 71/58/54
f 72/130/98 76/62/58 73/59/55
f 60/131/77 75/63/59 72/130/98
f 7/132/5 75/63/59 14/133/11
f 77/65/61 17/134/91 95/135/92
f 82/67/63 95/135/92 94/136/90
f 81/90/79 77/65/61 82/67/63
f 79/137/64 94/103/90 93/102/89
f 98/138/95 93/102/89 92/101/88
f 97/139/93 79/68/64 98/140/95
f 83/71/67 81/141/79 80/142/62
f 96/143/94 80/66/62 97/139/93
f 87/144/82 83/145/67 96/143/94
f 1/1/1 2/74/70 3/2/2
f 5/4/4 6/146/57 7/5/5
f 9/7/7 10/98/76 11/8/8
f 13/10/10 8/84/6 7/11/5
f 16/13/12 17/134/91 18/14/13
f 19/16/15 20/91/80 21/17/16
f 24/19/18 25/72/68 26/20/19
f 28/22/21 29/73/69 30/23/22
f 32/25/24 33/147/96 34/26/25
f 35/28/27 36/75/71 37/29/28
f 40/31/30 41/76/72 42/32/31
f 16/34/12 44/77/73 45/35/33
f 47/37/35 48/79/74 49/38/36
f 51/40/38 52/80/75 53/41/39
f 55/43/41 56/148/87 57/44/42
f 59/46/44 60/83/77 61/47/45
f 62/49/47 63/121/97 64/50/48
f 38/52/29 37/149/28 67/53/50
f 68/55/52 69/85/78 70/56/53
f 71/58/54 72/130/98 73/59/55
f 6/61/57 44/150/73 76/62/58
f 78/64/60 70/56/53 18/14/13
f 80/66/62 81/90/79 82/67/63
f 84/69/65 85/92/81 86/70/66
f 24/19/18 1/1/1 4/3/3
f 34/26/25 1/1/1 24/19/18
f 34/26/25 33/147/96 2/74/70
f 36/75/71 5/4/4 8/6/6
f 45/35/33 5/4/4 36/75/71
f 44/77/73 6/146/57 5/4/4
f 47/37/35 9/81/7 12/78/9
f 52/80/75 57/44/42 9/81/7
f 57/44/42 56/148/87 10/82/76
f 59/46/44 13/10/10 14/12/11
f 67/53/50 13/10/10 59/46/44
f 67/53/50 37/149/28 8/84/6
f 15/15/14 18/14/13 70/56/53
f 73/59/55 76/62/58 15/86/14
f 76/62/58 44/150/73 16/88/12
f 19/89/15 22/57/17 70/56/53
f 81/90/79 86/151/66 19/89/15
f 86/70/66 85/92/81 20/91/80
f 23/21/20 26/20/19 21/17/16
f 85/92/81 30/23/22 23/21/20
f 29/73/69 24/19/18 23/21/20
f 27/24/23 30/23/22 85/92/81
f 87/93/82 88/95/84 27/24/23
f 89/94/83 28/22/21 27/24/23
f 31/27/26 34/26/25 29/73/69
f 90/96/85 31/27/26 28/22/21
f 91/97/86 32/25/24 31/27/26
f 35/28/27 38/30/29 11/8/8
f 56/99/87 42/32/31 35/28/27
f 41/76/72 36/75/71 35/28/27
f 55/100/41 39/33/32 42/32/31
f 92/101/88 93/102/89 39/33/32
f 93/102/89 94/103/90 40/31/30
f 43/36/34 45/35/33 41/76/72
f 94/103/90 95/105/92 43/36/34
f 17/104/91 16/34/12 43/36/34
f 46/106/37 49/152/36 91/97/86
f 53/41/39 46/39/37 90/107/85
f 52/80/75 47/37/35 46/39/37
f 88/109/84 50/42/40 53/41/39
f 87/93/82 96/153/94 50/110/40
f 97/111/93 51/40/38 50/42/40
f 54/45/43 57/44/42 52/80/75
f 98/113/95 54/45/43 51/40/38
f 92/114/88 55/43/41 54/45/43
f 58/48/46 61/47/45 3/115/2
f 65/51/49 58/48/46 2/116/70
f 64/50/48 59/46/44 58/48/46
f 32/118/24 62/49/47 65/51/49
f 91/97/86 49/152/36 62/119/47
f 49/120/36 48/123/74 63/121/97
f 66/54/51 67/53/50 64/50/48
f 12/122/9 66/54/51 63/121/97
f 11/124/8 38/52/29 66/54/51
f 26/20/19 68/125/52 22/18/17
f 25/72/68 74/154/56 68/125/52
f 74/60/56 73/59/55 69/87/78
f 71/127/54 74/154/56 25/72/68
f 61/128/45 71/127/54 4/3/3
f 61/129/45 60/131/77 72/130/98
f 72/130/98 75/63/59 76/62/58
f 60/131/77 14/133/11 75/63/59
f 7/132/5 6/61/57 75/63/59
f 77/65/61 18/14/13 17/134/91
f 82/67/63 77/65/61 95/135/92
f 81/90/79 78/64/60 77/65/61
f 79/137/64 82/155/63 94/103/90
f 98/138/95 79/137/64 93/102/89
f 97/139/93 80/66/62 79/68/64
f 83/71/67 86/70/66 81/141/79
f 96/143/94 83/145/67 80/66/62
f 87/144/82 84/156/65 83/145/67
